<svg id="ai" xmlns="http://www.w3.org/2000/svg" viewBox="0 0 500 500"><defs><style>.cls-1{fill:#300;}.cls-2{fill:#ff9a00;}.cls-3{fill:#ab2141;}.cls-4{fill:#fed3cf;}</style></defs><circle class="cls-1" cx="250" cy="250" r="250"/><g id="Outlined_Mnemonics_Logos" data-name="Outlined Mnemonics Logos"><g id="Ai-2" data-name="Ai"><path class="cls-2" d="M242.75,299.17h-77.5l-15.83,49a3.64,3.64,0,0,1-4,2.92H106.29c-2.29,0-2.91-1.25-2.29-3.75l67.09-193.13c.62-2.08,1.25-4.37,2.08-6.87a73.1,73.1,0,0,0,1.25-13.54,2.06,2.06,0,0,1,1.67-2.3H230c1.67,0,2.5.63,2.71,1.67l76,214.58c.63,2.3,0,3.34-2.08,3.34H263.17a3.14,3.14,0,0,1-3.33-2.29Zm-65.41-42.29h52.91c-1.25-4.37-2.91-9.58-4.79-15-1.87-5.62-3.75-11.67-5.62-17.92-2.09-6.45-4-12.7-6.05-19.16s-3.95-12.5-5.62-18.54C206.5,180.42,205,175,203.59,170h-.42a259.24,259.24,0,0,1-7.08,26.87c-3.13,10-6.25,20.42-9.59,30.83-2.91,10.63-6,20.42-9.16,29.17Z"/><path class="cls-2" d="M354.21,167.09a25.79,25.79,0,0,1-18.54-7.29,27.08,27.08,0,0,1-7.08-19.17,24.5,24.5,0,0,1,7.5-18.54,26.67,26.67,0,0,1,18.54-7.29c8.12,0,14.37,2.5,19,7.29a26.31,26.31,0,0,1,6.87,18.54,26.37,26.37,0,0,1-7.29,19.17A24.49,24.49,0,0,1,354.21,167.09ZM330.88,347.92V187.51c0-2.09.83-2.92,2.71-2.92h41.25c1.87,0,2.7,1,2.7,2.92V347.92c0,2.29-.83,3.34-2.7,3.34H334C331.92,351.26,330.88,350,330.88,347.92Z"/></g></g><circle class="cls-3" cx="250" cy="250" r="250"/><g id="Outlined_Mnemonics_Logos-2" data-name="Outlined Mnemonics Logos"><g id="Ai-3" data-name="Ai"><path class="cls-4" d="M242.75,299.17h-77.5l-15.83,49a3.64,3.64,0,0,1-4,2.92H106.29c-2.29,0-2.91-1.25-2.29-3.75l67.09-193.13c.62-2.08,1.25-4.37,2.08-6.87a73.1,73.1,0,0,0,1.25-13.54,2.06,2.06,0,0,1,1.67-2.3H230c1.67,0,2.5.63,2.71,1.67l76,214.58c.63,2.3,0,3.34-2.08,3.34H263.17a3.14,3.14,0,0,1-3.33-2.29Zm-65.41-42.29h52.91c-1.25-4.37-2.91-9.58-4.79-15-1.87-5.62-3.75-11.67-5.62-17.92-2.09-6.45-4-12.7-6.05-19.16s-3.95-12.5-5.62-18.54C206.5,180.42,205,175,203.59,170h-.42a259.24,259.24,0,0,1-7.08,26.87c-3.13,10-6.25,20.42-9.59,30.83-2.91,10.63-6,20.42-9.16,29.17Z"/><path class="cls-4" d="M354.21,167.09a25.79,25.79,0,0,1-18.54-7.29,27.08,27.08,0,0,1-7.08-19.17,24.5,24.5,0,0,1,7.5-18.54,26.67,26.67,0,0,1,18.54-7.29c8.12,0,14.37,2.5,19,7.29a26.31,26.31,0,0,1,6.87,18.54,26.37,26.37,0,0,1-7.29,19.17A24.49,24.49,0,0,1,354.21,167.09ZM330.88,347.92V187.51c0-2.09.83-2.92,2.71-2.92h41.25c1.87,0,2.7,1,2.7,2.92V347.92c0,2.29-.83,3.34-2.7,3.34H334C331.92,351.26,330.88,350,330.88,347.92Z"/></g></g></svg>