<svg id="css" xmlns="http://www.w3.org/2000/svg" viewBox="0 0 500 500"><defs><style>.cls-1{fill:#264de4;}.cls-2{fill:none;}.cls-3{fill:#2965f1;}.cls-4{fill:#ebebeb;}.cls-5{fill:#fff;}.cls-6{fill:#ab2141;}.cls-7{fill:#f0a7a5;}.cls-8{fill:#fce7e6;}</style></defs><circle class="cls-1" cx="250" cy="250" r="250"/><path class="cls-2" d="M250,0V50c110.46,0,200,89.54,200,200S360.46,450,250,450v50H500V0Z"/><path class="cls-3" d="M450,250c0-110.46-89.54-200-200-200V450C360.46,450,450,360.46,450,250Z"/><polygon id="polygon2995" class="cls-4" points="249.41 108.06 249.24 108.06 125 108.06 129.51 157.68 249.41 157.68 249.41 108.06"/><polygon id="polygon2997" class="cls-4" points="249.41 391.5 249.41 339.41 249.19 339.47 193.43 324.41 189.87 284.48 162.77 284.48 139.6 284.48 146.62 363.09 249.18 391.56 249.41 391.5"/><polygon id="polygon2993" class="cls-4" points="133.93 208.64 138.38 259.67 249.41 259.67 249.41 208.64 133.93 208.64"/><polygon id="polygon3005" class="cls-5" points="311.15 259.67 305.33 324.69 249.41 339.78 249.41 391.94 352.19 363.45 352.94 354.98 364.73 223 365.95 209.53 375 108.06 249.41 108.06 249.41 157.68 319.58 157.68 315.05 208.67 249.41 208.67 249.41 259.67 311.15 259.67"/><circle class="cls-6" cx="250" cy="250" r="250"/><path class="cls-2" d="M250,0V50c110.46,0,200,89.54,200,200S360.46,450,250,450v50H500V0Z"/><path class="cls-7" d="M450,250c0-110.46-89.54-200-200-200V450C360.46,450,450,360.46,450,250Z"/><polygon id="polygon2995-2" data-name="polygon2995" class="cls-8" points="249.41 108.06 249.24 108.06 125 108.06 129.51 157.68 249.41 157.68 249.41 108.06"/><polygon id="polygon2997-2" data-name="polygon2997" class="cls-8" points="249.41 391.5 249.41 339.41 249.19 339.47 193.43 324.41 189.87 284.48 162.77 284.48 139.6 284.48 146.62 363.09 249.18 391.56 249.41 391.5"/><polygon id="polygon2993-2" data-name="polygon2993" class="cls-8" points="133.93 208.64 138.38 259.67 249.41 259.67 249.41 208.64 133.93 208.64"/><polygon id="polygon3005-2" data-name="polygon3005" class="cls-5" points="311.15 259.67 305.33 324.69 249.41 339.78 249.41 391.94 352.19 363.45 352.94 354.98 364.73 223 365.95 209.53 375 108.06 249.41 108.06 249.41 157.68 319.58 157.68 315.05 208.67 249.41 208.67 249.41 259.67 311.15 259.67"/></svg>