<svg id="mail" xmlns="http://www.w3.org/2000/svg" viewBox="0 0 500.29 500.13"><defs><style>.cls-1{fill:#f0a7a5;}.cls-2{fill:none;}.cls-3{fill:#181a18;}</style></defs><path class="cls-1" d="M500.29,249.87c0,138.07-111.93,250-250,250s-250-111.93-250-250,111.93-250,250-250,250,111.93,250,250" transform="translate(0 0.13)"/><path id="Path_851" data-name="Path 851" class="cls-2" d="M0,0H500V500H0Z" transform="translate(0 0.13)"/><path id="Path_852" data-name="Path 852" class="cls-3" d="M375,125H125a31.25,31.25,0,0,0-31.09,31.25l-.16,187.5A31.34,31.34,0,0,0,125,375H375a31.34,31.34,0,0,0,31.25-31.25V156.25A31.34,31.34,0,0,0,375,125Zm0,218.75H125V187.5l125,78.12L375,187.5ZM250,234.38,125,156.25H375Z" transform="translate(0 0.13)"/></svg>