<svg id="html" xmlns="http://www.w3.org/2000/svg" viewBox="0 0 500 500"><defs><style>.cls-1{fill:#e44d26;}.cls-2{fill:#f16529;}.cls-3{fill:#ebebeb;}.cls-4{fill:#fff;}.cls-5{fill:#ab2141;}.cls-6{fill:#f0a7a5;}.cls-7{fill:#fce7e6;}</style></defs><circle class="cls-1" cx="250" cy="250" r="250"/><path class="cls-2" d="M449.89,250.15c0-110.46-89.54-200-200-200v400C360.35,450.15,449.89,360.6,449.89,250.15Z"/><path class="cls-3" d="M125,109H250.55v49.56H179.09l4.67,51.76h66.79v49.56H139.32m1.1,24.33h50.66l3.52,40,56,15L250.5,391l-102.59-28.3"/><path class="cls-4" d="M375,109H250.55v49.56h120m-4.4,51.76H250.55v49.56h61.13l-5.78,64.41-55.35,14.85v51.52l101.52-28.16"/><circle class="cls-5" cx="250" cy="250" r="250"/><path class="cls-6" d="M449.89,250.15c0-110.46-89.54-200-200-200v400C360.35,450.15,449.89,360.6,449.89,250.15Z"/><path class="cls-7" d="M125,109H250.55v49.56H179.09l4.67,51.76h66.79v49.56H139.32m1.1,24.33h50.66l3.52,40,56,15L250.5,391l-102.59-28.3"/><path class="cls-4" d="M375,109H250.55v49.56h120m-4.4,51.76H250.55v49.56h61.13l-5.78,64.41-55.35,14.85v51.52l101.52-28.16"/></svg>