<svg id="ig" xmlns="http://www.w3.org/2000/svg" viewBox="0 0 500 500"><defs><style>.cls-1{fill:#f0f494;}.cls-2{fill:#181a18;}</style></defs><path class="cls-1" d="M500.15,250c0,138.07-111.92,250-250,250S.15,388.07.15,250,112.09,0,250.15,0,500.15,111.93,500.15,250Z" transform="translate(-0.15 0)"/><path class="cls-2" d="M250.15,181.08A68.92,68.92,0,1,0,319.08,250,69,69,0,0,0,250.15,181.08Zm0,113.43A44.51,44.51,0,1,1,294.66,250,44.56,44.56,0,0,1,250.15,294.51Z" transform="translate(-0.15 0)"/><path class="cls-2" d="M321.22,163.15a16.08,16.08,0,1,0,16.08,16.08A16.07,16.07,0,0,0,321.22,163.15Z" transform="translate(-0.15 0)"/><path class="cls-2" d="M307.32,116.67H193a76.25,76.25,0,0,0-76.16,76.16V307.17A76.25,76.25,0,0,0,193,383.33H307.32a76.25,76.25,0,0,0,76.17-76.16V192.83A76.25,76.25,0,0,0,307.32,116.67Zm51.75,190.5a51.81,51.81,0,0,1-51.75,51.75H193a51.82,51.82,0,0,1-51.75-51.75V192.83A51.81,51.81,0,0,1,193,141.08H307.32a51.8,51.8,0,0,1,51.75,51.75Z" transform="translate(-0.15 0)"/></svg>