<svg id="jq" xmlns="http://www.w3.org/2000/svg" viewBox="0 0 500 500"><defs><style>.cls-1{fill:#2c69a8;}.cls-2{fill:#8bcef1;}.cls-3{fill:#ab2141;}.cls-4{fill:#fed3cf;}</style></defs><circle class="cls-1" cx="250" cy="250" r="250"/><path class="cls-2" d="M136.79,183.67c-22.95,33-20.11,75.94-2.56,111.1.4.84.85,1.67,1.28,2.5l.81,1.58c.16.3.34.6.51.9.3.57.61,1.09.92,1.64l1.68,2.87.95,1.58,2,3,.83,1.28c.91,1.36,1.84,2.72,2.81,4l.55.75c.84,1.15,1.69,2.28,2.56,3.41l1,1.23,2.36,2.92.91,1.08c1.08,1.28,2.19,2.54,3.3,3.77a2.1,2.1,0,0,1,.2.22q1.65,1.79,3.35,3.53l1.08,1.09,2.68,2.63,1.09,1.05c1.21,1.14,2.43,2.25,3.68,3.34l4,3.41,1.38,1.1,2.78,2.17,1.48,1.14,3.13,2.24,1.46,1c1,.69,2,1.34,3,2l1.31.87q2.35,1.5,4.75,2.91l1.31.81,3.57,2c.65.35,1.31.68,2,1l2.54,1.32.6.28,1.05.51,4,1.86.85.38q2.34,1,4.71,2l1.14.45,4.44,1.65.57.19q2.46.86,4.95,1.62l1.2.36a40.39,40.39,0,0,0,5.1,1.44c111,20.25,143.3-66.74,143.3-66.74-27.09,35.3-75.18,44.61-120.83,34.24-1.73-.39-3.41-.92-5.09-1.43l-1.26-.38c-1.64-.5-3.28-1-4.9-1.59l-.67-.25c-1.45-.51-2.89-1-4.32-1.6l-1.21-.48q-2.36-.93-4.67-1.95l-.93-.4-3.93-1.84-1.14-.54c-1-.49-2-1-3-1.62l-2-1.06c-1.23-.64-2.43-1.34-3.64-2l-1.24-.69c-1.59-.94-3.18-1.91-4.74-2.9l-1.28-.85-3.38-2.25a10.09,10.09,0,0,1-1.08-.76l-3.2-2.31-1.42-1.07-2.88-2.26-1.28-1-3.58-3c-.13-.12-.27-.22-.41-.33l-3.77-3.43-1.05-1-2.69-2.67-1.06-1.06c-1.13-1.16-2.24-2.33-3.24-3.52a.69.69,0,0,1-.16-.18q-1.72-1.89-3.38-3.84l-.81-1.05-2.43-3-.81-1.12L169,282.17c-25.44-34.48-34.54-82.14-14.32-121.23m53.36-5.07c-16.61,23.9-15.71,56-2.76,81.16a106.31,106.31,0,0,0,7.35,12.26c2.49,3.57,5.25,7.81,8.55,10.67,1.2,1.32,2.45,2.6,3.73,3.87l1,1q1.86,1.81,3.8,3.54c.06,0,.1.1.17.14,1.47,1.29,3,2.43,4.48,3.71l1,.79q2.28,1.75,4.65,3.4l.14.09c.7.49,1.41.94,2.12,1.41.34.21.67.45,1,.66,1.13.73,2.28,1.43,3.45,2.11l.48.28,3.05,1.63c.36.2.81.37,1.09.56l2.13,1.11.32.14q2.2,1.1,4.45,2.07l1,.4c1.21.52,2.43,1,3.65,1.48l1.56.57c1.11.4,2.22.79,3.35,1.16l1.51.48a40.68,40.68,0,0,0,4.84,1.41c85.74,14.2,105.54-51.9,105.54-51.9-17.84,25.7-52.39,38-89.27,28.38q-2.45-.65-4.86-1.4l-1.46-.47-3.4-1.17-1.62-.57c-1.23-.47-2.44-1-3.65-1.47l-1-.41q-2.26-1-4.48-2.08l-2.24-1.13-1.3-.67c-1-.51-1.9-1.05-2.84-1.59l-.68-.38c-1.16-.68-2.31-1.39-3.44-2.11-.35-.22-.69-.46-1-.69l-2.23-1.48q-2.35-1.63-4.62-3.39l-1.05-.81c-16.22-12.75-28.94-30.16-35-49.9-6.37-20.48-5-43.47,6-62.12M268,135.1c-9.78,14.47-10.75,32.3-3.95,48.21,7.16,16.89,21.83,30.13,39,36.49l2.12.81.94.29,3.06.81c47.34,9.15,60.17-24.29,63.6-29.22-11.24,16.2-30.15,20.08-53.34,14.45-1.83-.44-3.84-1.11-5.61-1.73a68,68,0,0,1-18.35-9.89C274.7,179.58,261.8,149.46,275.34,125"/><circle class="cls-3" cx="250" cy="250" r="250"/><path class="cls-4" d="M136.79,183.67c-22.95,33-20.11,75.94-2.56,111.1.4.84.85,1.67,1.28,2.5l.81,1.58c.16.3.34.6.51.9.3.57.61,1.09.92,1.64l1.68,2.87.95,1.58,2,3,.83,1.28c.91,1.36,1.84,2.72,2.81,4l.55.75c.84,1.15,1.69,2.28,2.56,3.41l1,1.23,2.36,2.92.91,1.08c1.08,1.28,2.19,2.54,3.3,3.77a2.1,2.1,0,0,1,.2.22q1.65,1.79,3.35,3.53l1.08,1.09,2.68,2.63,1.09,1.05c1.21,1.14,2.43,2.25,3.68,3.34l4,3.41,1.38,1.1,2.78,2.17,1.48,1.14,3.13,2.24,1.46,1c1,.69,2,1.34,3,2l1.31.87q2.35,1.5,4.75,2.91l1.31.81,3.57,2c.65.35,1.31.68,2,1l2.54,1.32.6.28,1.05.51,4,1.86.85.38q2.34,1,4.71,2l1.14.45,4.44,1.65.57.19q2.46.86,4.95,1.62l1.2.36a40.39,40.39,0,0,0,5.1,1.44c111,20.25,143.3-66.74,143.3-66.74-27.09,35.3-75.18,44.61-120.83,34.24-1.73-.39-3.41-.92-5.09-1.43l-1.26-.38c-1.64-.5-3.28-1-4.9-1.59l-.67-.25c-1.45-.51-2.89-1-4.32-1.6l-1.21-.48q-2.36-.93-4.67-1.95l-.93-.4-3.93-1.84-1.14-.54c-1-.49-2-1-3-1.62l-2-1.06c-1.23-.64-2.43-1.34-3.64-2l-1.24-.69c-1.59-.94-3.18-1.91-4.74-2.9l-1.28-.85-3.38-2.25a10.09,10.09,0,0,1-1.08-.76l-3.2-2.31-1.42-1.07-2.88-2.26-1.28-1-3.58-3c-.13-.12-.27-.22-.41-.33l-3.77-3.43-1.05-1-2.69-2.67-1.06-1.06c-1.13-1.16-2.24-2.33-3.24-3.52a.69.69,0,0,1-.16-.18q-1.72-1.89-3.38-3.84l-.81-1.05-2.43-3-.81-1.12L169,282.17c-25.44-34.48-34.54-82.14-14.32-121.23m53.36-5.07c-16.61,23.9-15.71,56-2.76,81.16a106.31,106.31,0,0,0,7.35,12.26c2.49,3.57,5.25,7.81,8.55,10.67,1.2,1.32,2.45,2.6,3.73,3.87l1,1q1.86,1.81,3.8,3.54c.06,0,.1.1.17.14,1.47,1.29,3,2.43,4.48,3.71l1,.79q2.28,1.75,4.65,3.4l.14.09c.7.49,1.41.94,2.12,1.41.34.21.67.45,1,.66,1.13.73,2.28,1.43,3.45,2.11l.48.28,3.05,1.63c.36.2.81.37,1.09.56l2.13,1.11.32.14q2.2,1.1,4.45,2.07l1,.4c1.21.52,2.43,1,3.65,1.48l1.56.57c1.11.4,2.22.79,3.35,1.16l1.51.48a40.68,40.68,0,0,0,4.84,1.41c85.74,14.2,105.54-51.9,105.54-51.9-17.84,25.7-52.39,38-89.27,28.38q-2.45-.65-4.86-1.4l-1.46-.47-3.4-1.17-1.62-.57c-1.23-.47-2.44-1-3.65-1.47l-1-.41q-2.26-1-4.48-2.08l-2.24-1.13-1.3-.67c-1-.51-1.9-1.05-2.84-1.59l-.68-.38c-1.16-.68-2.31-1.39-3.44-2.11-.35-.22-.69-.46-1-.69l-2.23-1.48q-2.35-1.63-4.62-3.39l-1.05-.81c-16.22-12.75-28.94-30.16-35-49.9-6.37-20.48-5-43.47,6-62.12M268,135.1c-9.78,14.47-10.75,32.3-3.95,48.21,7.16,16.89,21.83,30.13,39,36.49l2.12.81.94.29,3.06.81c47.34,9.15,60.17-24.29,63.6-29.22-11.24,16.2-30.15,20.08-53.34,14.45-1.83-.44-3.84-1.11-5.61-1.73a68,68,0,0,1-18.35-9.89C274.7,179.58,261.8,149.46,275.34,125"/></svg>