<svg id="js" xmlns="http://www.w3.org/2000/svg" viewBox="0 0 500 500"><defs><style>.cls-1{fill:#e9ca32;}.cls-2{fill:#ffde25;}.cls-3{fill:#fff;}.cls-4{fill:#ebebeb;}.cls-5{fill:#ab2141;}.cls-6{fill:#f0a7a5;}.cls-7{fill:#fce7e6;}</style></defs><circle class="cls-1" cx="250" cy="250" r="250"/><path class="cls-2" d="M449.89,250.15c0-110.46-89.54-200-200-200v400C360.35,450.15,449.89,360.6,449.89,250.15Z"/><path class="cls-3" d="M233.73,106.37H193.48V338.56l-31.28-5.95V301.33L125,295.38v70l108.73,28.28Zm30.09,0H375l-7.44,44.47H306.27v73h61.3l-7.44,147.38-96.31,22.32V347.46l65.07-22.32,3.76-61-68.83,10Z"/><polygon class="cls-4" points="233.73 106.37 193.48 106.37 193.48 338.56 162.2 332.61 162.2 301.33 125 295.38 125 365.35 233.73 393.63 233.73 106.37"/><circle class="cls-5" cx="250" cy="250" r="250"/><path class="cls-6" d="M449.89,250.15c0-110.46-89.54-200-200-200v400C360.35,450.15,449.89,360.6,449.89,250.15Z"/><path class="cls-3" d="M233.73,106.37H193.48V338.56l-31.28-5.95V301.33L125,295.38v70l108.73,28.28Zm30.09,0H375l-7.44,44.47H306.27v73h61.3l-7.44,147.38-96.31,22.32V347.46l65.07-22.32,3.76-61-68.83,10Z"/><polygon class="cls-7" points="233.73 106.37 193.48 106.37 193.48 338.56 162.2 332.61 162.2 301.33 125 295.38 125 365.35 233.73 393.63 233.73 106.37"/></svg>