<svg id="linkedin" xmlns="http://www.w3.org/2000/svg" viewBox="0 0 498.87 498.87"><defs><style>.cls-1{fill:#f0a7a5;}.cls-2{fill:#181a18;}</style></defs><path class="cls-1" d="M499.15,249.43c0,137.76-111.67,249.44-249.43,249.44S.29,387.19.29,249.43,112,0,249.72,0,499.15,111.68,499.15,249.43Z" transform="translate(-0.29 0)"/><path id="linkedin-square-rounded-icon" class="cls-2" d="M182.28,362.18H131.73V198.88h50.55ZM156.76,177.49a30.13,30.13,0,1,1,29.89-30.13A30,30,0,0,1,156.76,177.49ZM371.7,362.18H321.39V276.45c0-23.5-8.93-36.63-27.52-36.63-20.23,0-30.8,13.67-30.8,36.63v85.73H214.59V198.88h48.48v22a57,57,0,0,1,49.21-27c34.62,0,59.42,21.15,59.42,64.89Z" transform="translate(-0.29 0)"/></svg>