<svg id="ps" xmlns="http://www.w3.org/2000/svg" viewBox="0 0 500 500"><defs><style>.cls-1{fill:#001e36;}.cls-2{fill:#31a8ff;}.cls-3{fill:#ab2141;}.cls-4{fill:#fed3cf;}</style></defs><circle class="cls-1" cx="250" cy="250" r="250"/><g id="Outlined_Mnemonics_Logos" data-name="Outlined Mnemonics Logos"><g id="Ps-2" data-name="Ps"><path class="cls-2" d="M113,348.55V134.17c0-1.46.63-2.29,2.08-2.29,3.55,0,6.88,0,11.67-.21,5-.21,10.21-.21,15.83-.41s11.67-.21,18.13-.42,12.71-.21,19-.21c17.08,0,31.25,2.08,42.91,6.46a74.36,74.36,0,0,1,27.92,17.08,66.26,66.26,0,0,1,15.21,23.75A79.88,79.88,0,0,1,270.46,205q0,26.87-12.5,44.37a71.35,71.35,0,0,1-33.54,25.42c-14.17,5.21-29.79,7.08-46.88,7.08-5,0-8.33,0-10.41-.21s-5-.21-9-.21v66.88a2.59,2.59,0,0,1-2.29,2.92H115.46C113.79,351.26,113,350.42,113,348.55Zm45.42-176.46v70c2.91.21,5.62.42,8.12.42h11a77.82,77.82,0,0,0,24-3.75,35.9,35.9,0,0,0,17.09-11c4.37-5.2,6.45-12.29,6.45-21.45a34.25,34.25,0,0,0-4.79-18.55,30.22,30.22,0,0,0-14.58-11.87,61,61,0,0,0-24.58-4.17c-5.42,0-10.21,0-14.17.21a47.3,47.3,0,0,0-8.54.21Z"/><path class="cls-2" d="M400.46,229.38a73.94,73.94,0,0,0-20-7.08,109.64,109.64,0,0,0-23.33-2.71,41.94,41.94,0,0,0-12.5,1.46,10.68,10.68,0,0,0-6.46,4.16,11.07,11.07,0,0,0-1.67,5.63,9.31,9.31,0,0,0,2.09,5.42,23.45,23.45,0,0,0,7.08,5.62c4.79,2.5,9.79,4.79,14.79,6.88A150.84,150.84,0,0,1,392.54,264,48.46,48.46,0,0,1,409,281.26a44.83,44.83,0,0,1,4.79,21.45,48.41,48.41,0,0,1-8.12,27.71A52.16,52.16,0,0,1,382.34,349c-10.21,4.38-22.71,6.67-37.71,6.67a143.19,143.19,0,0,1-28.34-2.71A84.29,84.29,0,0,1,295,346.26a4.12,4.12,0,0,1-2.29-4V306.05a2.26,2.26,0,0,1,.84-1.88,1.58,1.58,0,0,1,1.87.21,89.25,89.25,0,0,0,25.83,10.21,97.17,97.17,0,0,0,24.59,3.12c7.91,0,13.54-1,17.29-2.91a9.68,9.68,0,0,0,5.62-8.75c0-2.92-1.66-5.63-5-8.34s-10.2-5.83-20.41-9.79a127.48,127.48,0,0,1-29.59-15A54,54,0,0,1,298,255.21,44.68,44.68,0,0,1,293.17,234a49,49,0,0,1,7.08-25.2,51.35,51.35,0,0,1,21.88-19.17c9.79-5,22.08-7.29,36.87-7.29a179.79,179.79,0,0,1,25.84,1.87A73.56,73.56,0,0,1,402.75,189a3.69,3.69,0,0,1,2.09,1.88,10.88,10.88,0,0,1,.41,2.5v34a2.55,2.55,0,0,1-1,2.08C402.34,229.8,401.29,229.8,400.46,229.38Z"/></g></g><circle class="cls-3" cx="250" cy="250" r="250"/><g id="Outlined_Mnemonics_Logos-2" data-name="Outlined Mnemonics Logos"><g id="Ps-3" data-name="Ps"><path class="cls-4" d="M113,348.55V134.17c0-1.46.63-2.29,2.08-2.29,3.55,0,6.88,0,11.67-.21,5-.21,10.21-.21,15.83-.41s11.67-.21,18.13-.42,12.71-.21,19-.21c17.08,0,31.25,2.08,42.91,6.46a74.36,74.36,0,0,1,27.92,17.08,66.26,66.26,0,0,1,15.21,23.75A79.88,79.88,0,0,1,270.46,205q0,26.87-12.5,44.37a71.35,71.35,0,0,1-33.54,25.42c-14.17,5.21-29.79,7.08-46.88,7.08-5,0-8.33,0-10.41-.21s-5-.21-9-.21v66.88a2.59,2.59,0,0,1-2.29,2.92H115.46C113.79,351.26,113,350.42,113,348.55Zm45.42-176.46v70c2.91.21,5.62.42,8.12.42h11a77.82,77.82,0,0,0,24-3.75,35.9,35.9,0,0,0,17.09-11c4.37-5.2,6.45-12.29,6.45-21.45a34.25,34.25,0,0,0-4.79-18.55,30.22,30.22,0,0,0-14.58-11.87,61,61,0,0,0-24.58-4.17c-5.42,0-10.21,0-14.17.21a47.3,47.3,0,0,0-8.54.21Z"/><path class="cls-4" d="M400.46,229.38a73.94,73.94,0,0,0-20-7.08,109.64,109.64,0,0,0-23.33-2.71,41.94,41.94,0,0,0-12.5,1.46,10.68,10.68,0,0,0-6.46,4.16,11.07,11.07,0,0,0-1.67,5.63,9.31,9.31,0,0,0,2.09,5.42,23.45,23.45,0,0,0,7.08,5.62c4.79,2.5,9.79,4.79,14.79,6.88A150.84,150.84,0,0,1,392.54,264,48.46,48.46,0,0,1,409,281.26a44.83,44.83,0,0,1,4.79,21.45,48.41,48.41,0,0,1-8.12,27.71A52.16,52.16,0,0,1,382.34,349c-10.21,4.38-22.71,6.67-37.71,6.67a143.19,143.19,0,0,1-28.34-2.71A84.29,84.29,0,0,1,295,346.26a4.12,4.12,0,0,1-2.29-4V306.05a2.26,2.26,0,0,1,.84-1.88,1.58,1.58,0,0,1,1.87.21,89.25,89.25,0,0,0,25.83,10.21,97.17,97.17,0,0,0,24.59,3.12c7.91,0,13.54-1,17.29-2.91a9.68,9.68,0,0,0,5.62-8.75c0-2.92-1.66-5.63-5-8.34s-10.2-5.83-20.41-9.79a127.48,127.48,0,0,1-29.59-15A54,54,0,0,1,298,255.21,44.68,44.68,0,0,1,293.17,234a49,49,0,0,1,7.08-25.2,51.35,51.35,0,0,1,21.88-19.17c9.79-5,22.08-7.29,36.87-7.29a179.79,179.79,0,0,1,25.84,1.87A73.56,73.56,0,0,1,402.75,189a3.69,3.69,0,0,1,2.09,1.88,10.88,10.88,0,0,1,.41,2.5v34a2.55,2.55,0,0,1-1,2.08C402.34,229.8,401.29,229.8,400.46,229.38Z"/></g></g></svg>