<svg id="xd" xmlns="http://www.w3.org/2000/svg" viewBox="0 0 500 500"><defs><style>.cls-1{fill:#470137;}.cls-2{fill:#ff61f6;}.cls-3{fill:#ab2141;}.cls-4{fill:#fed3cf;}</style></defs><circle class="cls-1" cx="250" cy="250" r="250"/><path class="cls-2" d="M263.38,134.8l-62.5,103.12L267.54,347.3a3.55,3.55,0,0,1,.42,2.5c-.21.83-1,.21-2.29.41H218c-3.33,0-5.62-.2-7.08-2.29-4.38-8.75-9-17.29-13.34-26-4.37-8.54-9.16-17.29-14.16-26.25s-10-17.92-15-27.08H168c-4.37,9-9.17,17.91-14,26.87s-9.58,17.92-14.16,26.67c-4.8,8.75-9.59,17.71-14.38,26.25-.83,2.08-2.5,2.29-4.79,2.29H74.84c-.84,0-1.46.42-1.46-.62a2.93,2.93,0,0,1,.41-2.3l64.8-106.25L75.46,134.59c-.62-.83-.83-1.67-.42-2.08a2.42,2.42,0,0,1,2.09-.84h47.29a12.3,12.3,0,0,1,2.92.42,6,6,0,0,1,2.08,1.87c4,9,8.54,17.92,13.33,26.88,5,9,9.79,17.71,15,26.46,5,8.75,9.59,17.5,14,26.46h.42c4.37-9.17,9-18.13,13.54-26.88s9.37-17.5,14.17-26.25,9.37-17.71,13.95-26.25A3.56,3.56,0,0,1,215,132.3a4,4,0,0,1,2.71-.42h44a1.92,1.92,0,0,1,2.29,1.46c.21.21-.21,1-.62,1.46Z"/><path class="cls-2" d="M359.63,354.59a103.49,103.49,0,0,1-44.79-9.38,72.6,72.6,0,0,1-31.46-28.33c-7.71-12.71-11.46-28.54-11.46-47.5a85.55,85.55,0,0,1,11.46-44,86.46,86.46,0,0,1,33.12-32.29c14.59-8.12,32.09-12.08,52.71-12.08a37,37,0,0,1,4.38.21c1.87.2,4,.2,6.45.41V115.84c0-1.46.63-2.29,2.09-2.29h42.29A1.86,1.86,0,0,1,426.5,115V313.76c0,3.75.21,7.91.42,12.5.42,4.37.62,8.54.83,12.08a3.37,3.37,0,0,1-2.08,3.33,158.44,158.44,0,0,1-34,10A183.24,183.24,0,0,1,359.63,354.59ZM380,312.92V221.26a52.82,52.82,0,0,0-5.62-1c-2.29-.2-4.58-.41-6.88-.41A51.35,51.35,0,0,0,344,225.21a46.83,46.83,0,0,0-17.71,15.42c-4.58,6.67-6.87,15.63-6.87,26.46A58.05,58.05,0,0,0,323,288.55a40.7,40.7,0,0,0,9.38,14.79,35.87,35.87,0,0,0,14.16,8.33,54.42,54.42,0,0,0,17.29,2.71c3.13,0,6-.21,8.75-.42a18.08,18.08,0,0,0,7.5-1Z"/><circle class="cls-3" cx="250" cy="250" r="250"/><path class="cls-4" d="M263.38,134.8l-62.5,103.12L267.54,347.3a3.55,3.55,0,0,1,.42,2.5c-.21.83-1,.21-2.29.41H218c-3.33,0-5.62-.2-7.08-2.29-4.38-8.75-9-17.29-13.34-26-4.37-8.54-9.16-17.29-14.16-26.25s-10-17.92-15-27.08H168c-4.37,9-9.17,17.91-14,26.87s-9.58,17.92-14.16,26.67c-4.8,8.75-9.59,17.71-14.38,26.25-.83,2.08-2.5,2.29-4.79,2.29H74.84c-.84,0-1.46.42-1.46-.62a2.93,2.93,0,0,1,.41-2.3l64.8-106.25L75.46,134.59c-.62-.83-.83-1.67-.42-2.08a2.42,2.42,0,0,1,2.09-.84h47.29a12.3,12.3,0,0,1,2.92.42,6,6,0,0,1,2.08,1.87c4,9,8.54,17.92,13.33,26.88,5,9,9.79,17.71,15,26.46,5,8.75,9.59,17.5,14,26.46h.42c4.37-9.17,9-18.13,13.54-26.88s9.37-17.5,14.17-26.25,9.37-17.71,13.95-26.25A3.56,3.56,0,0,1,215,132.3a4,4,0,0,1,2.71-.42h44a1.92,1.92,0,0,1,2.29,1.46c.21.21-.21,1-.62,1.46Z"/><path class="cls-4" d="M359.63,354.59a103.49,103.49,0,0,1-44.79-9.38,72.6,72.6,0,0,1-31.46-28.33c-7.71-12.71-11.46-28.54-11.46-47.5a85.55,85.55,0,0,1,11.46-44,86.46,86.46,0,0,1,33.12-32.29c14.59-8.12,32.09-12.08,52.71-12.08a37,37,0,0,1,4.38.21c1.87.2,4,.2,6.45.41V115.84c0-1.46.63-2.29,2.09-2.29h42.29A1.86,1.86,0,0,1,426.5,115V313.76c0,3.75.21,7.91.42,12.5.42,4.37.62,8.54.83,12.08a3.37,3.37,0,0,1-2.08,3.33,158.44,158.44,0,0,1-34,10A183.24,183.24,0,0,1,359.63,354.59ZM380,312.92V221.26a52.82,52.82,0,0,0-5.62-1c-2.29-.2-4.58-.41-6.88-.41A51.35,51.35,0,0,0,344,225.21a46.83,46.83,0,0,0-17.71,15.42c-4.58,6.67-6.87,15.63-6.87,26.46A58.05,58.05,0,0,0,323,288.55a40.7,40.7,0,0,0,9.38,14.79,35.87,35.87,0,0,0,14.16,8.33,54.42,54.42,0,0,0,17.29,2.71c3.13,0,6-.21,8.75-.42a18.08,18.08,0,0,0,7.5-1Z"/></svg>