<svg id="Layer_1" data-name="Layer 1" xmlns="http://www.w3.org/2000/svg" viewBox="0 0 325.8 548.97"><defs><style>.cls-1{fill:#fff;}</style></defs><path class="cls-1" d="M224.32,549.61a7.47,7.47,0,0,1-5.29-2.19c-17.64-17.55-9.27-61.6,13.25-122.59-59.93-47.92-100.92-70.58-124.84-81.16-26.25-11.62-38.23-11.61-38.29-11.61a7.4,7.4,0,0,1-7.75-7.18,7.56,7.56,0,0,1,7.24-7.81c1.41,0,14.52-.22,42.53,11.86,35.39,15.26,78,42.55,126.69,81.17q6.06-15.62,13.12-32.46c-1.72-5.61-3.76-11.88-6.16-18.88-12.36-36-30.16-79.58-47.38-121.74C152.76,127.65,144.37,103.5,157,96.36c9-5.07,19.79,1.77,59.94,55.73,26.11,35.1,43,65.58,53.81,90.1,10.79-57,32.72-115,43.05-140.47,10.91-26.91,22.51-51.64,32.65-69.62C362.07,4.48,369.53.65,375.26.64h0c2.37,0,10,1,11.13,13.25,4.4,48.38-9.75,110.51-44.53,195.52-7.92,19.37-19.17,44-32.19,72.53-5.92,13-12,26.37-18.16,40,0,8.54-1.44,15.1-4.27,18.82a10.05,10.05,0,0,1-5.85,3.86c-5,11.27-9.87,22.57-14.58,33.77,10.16,34.21,10.36,51.31,1.33,58.05-6.77,5-15.22,2.48-23.29-2.39q-1,2.84-2,5.64c-25,71.09-19.05,91.37-13.26,97.13a7.5,7.5,0,0,1-5.29,12.82Zm25.92-130c5.18,3.48,7.92,4.27,9,4.45.7-1.74,1.59-7.11-1.86-22.72Q253.69,410.57,250.24,419.6ZM167.7,115.44c5.06,21.49,26.14,73.1,43.62,115.91,22,53.9,38.1,94.74,48.55,125.36q4.41-10.21,9.08-20.81c-6.05-14.33-4.63-42.35-3.47-56q.34-4.08.81-8.22c-10-28.85-28.6-66.64-61.36-110.67C185.05,134.32,173.88,121.54,167.7,115.44ZM281.58,270q1.56,4.71,2.77,8.88c1.45,5,2.68,9.8,3.69,14.45q4-8.71,8-17.61c12.95-28.38,24.14-52.88,31.95-72C360.21,125,374.58,64.86,371.85,20.07,350.79,46.65,293.25,173.81,281.58,270Z" transform="translate(-61.4 -0.64)"/></svg>