<svg id="Layer_1" data-name="Layer 1" xmlns="http://www.w3.org/2000/svg" viewBox="0 0 500 548.97"><defs><style>.cls-1{fill:#f0a7a5;}.cls-2{fill:#fff;}</style></defs><circle class="cls-1" cx="250" cy="262.23" r="250"/><path class="cls-2" d="M223.9,549.61a7.47,7.47,0,0,1-5.29-2.19c-17.64-17.55-9.27-61.6,13.25-122.59C171.93,376.91,130.94,354.25,107,343.67c-26.24-11.62-38.23-11.61-38.28-11.61A7.38,7.38,0,0,1,61,324.88a7.54,7.54,0,0,1,7.23-7.81c1.41,0,14.52-.22,42.53,11.86,35.39,15.26,78,42.55,126.69,81.17q6.06-15.62,13.12-32.46c-1.72-5.61-3.76-11.88-6.16-18.88C232,322.78,214.24,279.18,197,237,152.35,127.65,144,103.5,156.62,96.36c9-5.07,19.79,1.77,59.93,55.73,26.12,35.1,43,65.58,53.82,90.1,10.78-57,32.71-115,43-140.47,10.91-26.91,22.51-51.64,32.65-69.62C361.65,4.48,369.11.65,374.85.64h0c2.37,0,10,1,11.13,13.25,4.4,48.38-9.75,110.51-44.52,195.52-7.93,19.37-19.18,44-32.2,72.53-5.91,13-12,26.37-18.15,40,0,8.54-1.45,15.1-4.28,18.82a10,10,0,0,1-5.85,3.86c-5,11.27-9.86,22.57-14.58,33.77,10.16,34.21,10.36,51.31,1.33,58.05-6.77,5-15.22,2.48-23.28-2.39q-1,2.84-2,5.64c-25,71.09-19.06,91.37-13.27,97.13a7.5,7.5,0,0,1-5.29,12.82Zm25.92-130c5.18,3.48,7.92,4.27,9,4.45.71-1.74,1.6-7.11-1.86-22.72Q253.27,410.57,249.82,419.6ZM167.28,115.44c5.06,21.49,26.14,73.1,43.63,115.91,22,53.9,38.09,94.74,48.55,125.36q4.4-10.21,9.08-20.81c-6.06-14.33-4.63-42.35-3.48-56q.35-4.08.81-8.22c-10-28.85-28.6-66.64-61.35-110.67C184.64,134.32,173.46,121.54,167.28,115.44ZM281.17,270c1,3.14,1.95,6.1,2.76,8.88,1.45,5,2.68,9.8,3.69,14.45q4-8.71,8-17.61c12.95-28.38,24.14-52.88,31.95-72C359.79,125,374.16,64.86,371.43,20.07,350.37,46.65,292.83,173.81,281.17,270Z" transform="translate(0.39 -0.64)"/></svg>